# xmcd
#
# Track frame offsets:
# 150
# 15881
# 31998
# 46546
# 62340
# 76715
# 90254
# 105121
# 111068
# 125181
# 136210
# 152319
# 160196
# 171190
# 186472
#
# Disc length: 2670 seconds
#
#
# Revision: 0
# Processed by: cddbd v1.5.1PL2 Copyright (c) Steve Scherf et al.
# Submitted via: FreeRIP 2.944 
#
DISCID=9c0a6c0f
DTITLE=Jack Johnson - In Between Dreams
DYEAR=1900
DGENRE=Pop-Folk
TTITLE0=Better Together
TTITLE1=Never Know
TTITLE2=Banana Pancakes
TTITLE3=Good People
TTITLE4=No Other Way
TTITLE5=Sitting, Waiting, Wishing
TTITLE6=Staple it Together
TTITLE7=Situations
TTITLE8=Crying Shame
TTITLE9=if I Could
TTITLE10=Breakdown
TTITLE11=Belle
TTITLE12=Do You Remember
TTITLE13=Constelations
TTITLE14=MudFootball - Live
EXTD=
EXTT0=
EXTT1=
EXTT2=
EXTT3=
EXTT4=
EXTT5=
EXTT6=
EXTT7=
EXTT8=
EXTT9=
EXTT10=
EXTT11=
EXTT12=
EXTT13=
EXTT14=
PLAYORDER=
